<?xml version="1.0" encoding="utf-8"?>
<!-- Generator: Adobe Illustrator 18.0.0, SVG Export Plug-In . SVG Version: 6.00 Build 0)  -->
<!DOCTYPE svg PUBLIC "-//W3C//DTD SVG 1.1//EN" "http://www.w3.org/Graphics/SVG/1.1/DTD/svg11.dtd">
<svg version="1.1" id="Calque_1" xmlns="http://www.w3.org/2000/svg" xmlns:xlink="http://www.w3.org/1999/xlink" x="0px" y="0px"
	 viewBox="0 0 400 400" style="enable-background:new 0 0 400 400;" xml:space="preserve">
<g>
	<g>
		<path d="M200,50c-82.7,0-150,67.3-150,150c0,82.7,67.2,150,150,150c82.8,0,150-67.3,150-150C350,117.3,282.8,50,200,50z M200,318
			C134.9,318,81.9,265,81.9,200c0-65.1,53-118.1,118.1-118.1c65.2,0,118.2,53,118.2,118.1C318.1,265,265.1,318,200,318z
			 M145.3,275.7H255v-36.6h-67.8v-23.5h63.4v-36.7h-63.4v-23.5h67.9v-36.6H145.3V275.7z"/>
	</g>
</g>
</svg>
